<?xml version="1.0" encoding="UTF-8"?>
<svg id="Layer_1" data-name="Layer 1" xmlns="http://www.w3.org/2000/svg" viewBox="0 0 200 200">
  <path d="M141.83,142.12v.74c-.63,1.63-4,4.64-4.3,5.7-.55,1.95.83,3.64.51,5.57-.4,2.4-3.9,4.12-4.13,5.43-.25,1.39,1.34,3.21.21,5.46-1.28,2.56-9.02,1.88-11.59,2.39-3.03.6-6.32,2.33-9.08,2.7-3.72.5-8.03-.43-11.67.1-1.12.16-1.97,1.33-3.02,1.45-2.2.24-4.62-2.35-6.74-2.79-5.79-1.21-7.84,1.87-12.52,2.6-3.14.49-10.52-.08-13.09-2.01-1.69-1.27-1.46-2.99-2.01-3.52-1.01-.99-5.8-1.15-6.23-5.08.28-3.93,8.06-25.7,7.01-27.45-.19-.32-1.35-.45-1.63-.91-6.09-9.64,3.6-27.19,4.73-37.63l2.07,1.69c-2.49,11.36-8.5,22.59-5.75,34.49,1.58,2.02,7.13-16.67,7.44-17.99,1.64-6.76,4.11-30.29,7.22-34.1.48-.59,1.46-1.02,2.24-1.08.01-1.19-2.56-1.49-3.34-1.51-6.2-.2-5.8,10.54-6.98,14.8h-2.18c.71-4.7,1.3-9.52,3.52-13.8.75-1.44,2.63-2.56,2.95-3.68,1.78-6.18-.72-13.88,5.25-19.09,1.02-.89,2.67-1.02,3.33-1.82.35-.42,3.62-9.4,3.76-10.31.45-2.91-.78-4.07-.8-6.28-.11-9.83,15.5-10.44,17.69-1.86.89,3.5-1.04,4.63-.93,6.91.03.61,3.23,10.48,3.59,11.07,1.78,2.95,5.91,2.05,7.79,9.9,1.71,7.16.63,11.07-.43,17.71-.42,2.64,10.64,21.26,11.88,26.16,1.01,4.03-.6,6.61.08,9.46,1.78,7.5,12.84,18.35,15.14,26.58ZM98.44,34.34c-.14,4.89-5,4.95-5.16,0-4.66,3.65-1.65,10.47,2.68,13.23,3.32.59,7.54-11.8,2.48-13.23ZM87.4,51.32c3.1-.36,3.9-5.07,2.93-7.38-1.58.3-3.27,6.98-2.93,7.38ZM105.04,52.06l-2.56-8.12c-2.54,2.86-.88,7.14,2.56,8.12ZM104.42,54.34c-3.8,7.81-13.27,7.18-17.11,0l-4.32,1.78c3.61,6.59,11.03,6.36,16.41,10.09,2.04,1.41,2.19,2.58,3.37,3.83.58.62.51.67,1.52.47.92-4.38,5.51-8.42,5.91-12.91.29-3.27-2.59,2.51-2.96,2.95-1.99,2.4-4.69,5.28-8.09,4.79l5.53-5.15,3.29-4.82-3.57-1.04ZM85.18,77.9l.59-5.36-5.73-14.57c-1.67,5.16-2.29,10.74-2.18,16.2,3.45-.38,4.9,1.92,7.31,3.72ZM113.87,77.16c.03-5.65.29-11.62-1.83-16.98-2.21,2.3-2.65,4.63-2.59,7.72.09,4.12,1.06,6.87,4.41,9.25ZM102.85,77.16c.47-11.28-12.52-10.86-19.12-16.24-1.01,1.32,3.92,9.29,4.25,11.63.4,2.85-.82,4.78-.49,7.47,3.83,1.55,6.88,1.11,8.45-2.77l6.91-.09ZM107.99,69.04c-1.41-1.78-3.8,5.68-2.93,6.64l2.82-.85.11-5.78ZM110.9,76.44l-4.2,1.8c2.36,6.07,4.17,12.39,6.43,18.5,1.14,3.09,4.62,14.94,7.14,15.72,4.86,1.49,5.32-1.84,4.29-5.79l-13.66-30.22ZM80.04,83.06c2.49-.24,5.44,2.08,7.34-.36-2.34-2.83-7.27-4.98-7.34.36ZM104.93,79.49l-7.97-.11,1.48,5.16c2.45-.85,4.73-3.6,7.34-2.22l-.85-2.84ZM95.48,82.33c-.53-.54-8,1.07-7.35,3.68.85.72,8.86-.55,7.35-3.68ZM105.05,83.81c-.68-.57-4.67,2.21-5.88,2.59-.66.21-8.05,1.85-8.49,1.87-3.59.1-7.07-4.04-11.29-2.91l-3.02,15.42,19.5-12.54c1.35-.51,1.36.92,1.01,1.75-2.49,5.84-23.33,9.05-21.98,20.39,9.52-10.62,23.57-12.77,30.15-26.57ZM126.41,141.37l-19.52-56.08c-4.29,5.98-8.15,11.06-14.41,15.07-3.22,2.06-6.69,3.14-9.85,5.61-14.33,11.22-16.43,38.24-22.08,54.7l4.77,3.6,14.71-52.66,2.22-.49-15.36,55.62c.6,2.2,8.56,2.85,10.6,2.74,4.21-.23,8.73-3.71,12.38-3.5,3.04.18,6.04,3.61,9.29,3.46l-5.64-57.98,1.96-1.07,5.9,57.57c8,.73,14.57-.5,22.06-2.95l-10.3-36.16,2.27.43,10.33,35.64,6.43-.72.08-2.87c-2.68,1.35-3.23.59-4.44-1.81-8.69-17.21-12.3-42.54-20.56-60.6l.38-2.55,22.43,63.48c10.81-6.61,2.9-11.15,1.47-19.93,1.26-1.47,4.55,5.68,4.42,6.64.43.33,3.11-2.68,3.31-3.61.63-2.81-8.82-16.17-10.81-19.52-2.41-4.07-2.77-10.04-8.7-8.61l8.82,26.57-2.17-.02Z"/>
  <path d="M82.24,159.1l-1.96-1.07c2.34-10.51,2.88-21.81,5.15-32.28.19-.86.16-3.43,1.59-2.81s.75,1.75.66,2.8c-.97,10.88-4.05,22.45-5.44,33.37Z"/>
</svg>