<?xml version="1.0" encoding="UTF-8"?>
<svg id="Layer_1" data-name="Layer 1" xmlns="http://www.w3.org/2000/svg" viewBox="0 0 200 200">
  <path d="M132.77,131.54h-65.54c-1.58-2.29,1.6-5.13,2.97-6.95,1.73-2.3,14.1-17.51,15.23-17.84l29.66.22,17.59,21.39.09,3.17ZM73.49,127.87c17.24-.79,35.64,0,53.02,0,.3,0,1.29,1.88,1.09-.35l-13.4-17.09-28.05-.17-13.76,17.26c-.19,2.23.76.37,1.09.35Z"/>
  <path d="M55.45,131.54c-1.26-9.67-.84-19.9-.77-29.74,0-1.2.81-2.94.66-3.59-.19-.82-3.95-1.59-2.72-5.76,1.87-6.34,13.84.89,4.31,5.71,2.44,2.9,3.48,10.52,8.82,8.07,3.95-1.82,7.61-17.2,8.5-21.61.26-1.28,1.69-7.38,1.63-7.78-.09-.61-3.81-1.46-2.63-5.65,2.01-7.18,13.49,1.63,4.34,5.43-.22.31.68.84.68,1v31.54l-1.12,1.1-1.83-1.1v-13.57l-7.1,13.09c-1.55.9-3.07,1.76-4.98,1.57-2.6-.25-3.26-2.73-5.59-2.93.79,6.33,1.37,14.56.77,20.94-.13,1.38-.64,2.25-1.51,3.26h-1.47Z"/>
  <path d="M143.08,131.54c-.89-1.01-1.35-1.88-1.51-3.26-.68-6.24.04-14.71.77-20.94-2.33.2-2.99,2.67-5.59,2.93-1.91.19-3.43-.68-4.98-1.57l-7.1-13.09v13.57l-1.83,1.1-1.12-1.1v-31.54c0-.17.91-.69.68-1-9.15-3.8,2.33-12.62,4.34-5.43,1.17,4.19-2.54,5.04-2.63,5.65-.06.39,1.37,6.5,1.63,7.78,2.01,9.89,8.01,34.84,17.33,13.54-9.53-4.82,2.44-12.05,4.31-5.71,1.23,4.17-2.53,4.94-2.72,5.76-.15.65.65,2.39.66,3.59.06,9.84.48,20.07-.77,29.74h-1.47Z"/>
  <path d="M108.47,100.74c-2.83.85-6.2-3.4-8.47-3.4s-5.64,4.25-8.47,3.4l.62-9c-10.95-10.85-1.46-5.96,3.03-9,1.57-1.06,2.54-6.4,4.15-6.89,3.05-.94,3.61,5.62,5.49,6.89,4.49,3.04,13.98-1.85,3.03,9l.62,9ZM107.73,86.81c-4.55-.11-5.69-1.43-7.73-5.13-2.04,3.7-3.18,5.02-7.73,5.13,3.46,3.55,4.25,4.43,2.95,9.53,3.7-2.28,6.03-3.21,9.56,0-1.3-5.09-.5-5.98,2.95-9.53Z"/>
</svg>