<?xml version="1.0" encoding="UTF-8"?>
<svg id="Layer_1" data-name="Layer 1" xmlns="http://www.w3.org/2000/svg" viewBox="0 0 200 200">
  <defs>
    <style>
      .cls-1 {
        fill: #070707;
      }

      .cls-2 {
        fill: #111;
      }

      .cls-3 {
        fill: #6d6d6d;
      }

      .cls-4 {
        fill: #050505;
      }

      .cls-5 {
        fill: #010101;
      }

      .cls-6 {
        fill: #151515;
      }

      .cls-7 {
        fill: #232323;
      }

      .cls-8 {
        fill: #030303;
      }

      .cls-9 {
        fill: #0d0d0d;
      }

      .cls-10 {
        fill: #141414;
      }

      .cls-11 {
        fill: #060606;
      }

      .cls-12 {
        fill: #0b0b0b;
      }

      .cls-13 {
        fill: #121212;
      }

      .cls-14 {
        fill: #040404;
      }

      .cls-15 {
        fill: #080808;
      }

      .cls-16 {
        fill: #101010;
      }

      .cls-17 {
        fill: #0c0c0c;
      }

      .cls-18 {
        fill: #2a2a2a;
      }

      .cls-19 {
        fill: #131313;
      }

      .cls-20 {
        fill: #202020;
      }

      .cls-21 {
        fill: #0a0a0a;
      }

      .cls-22 {
        fill: #191919;
      }

      .cls-23 {
        fill: #090909;
      }

      .cls-24 {
        fill: #0f0f0f;
      }

      .cls-25 {
        fill: #161616;
      }

      .cls-26 {
        fill: #181818;
      }

      .cls-27 {
        fill: #0e0e0e;
      }
    </style>
  </defs>
  <path d="M116.73,107.98c0,.57.13,1.1.4,1.59.02.13-.02.27,0,.4-.39.48-.25,1.28.4,2.39.71,14.52-5.5,26.33-17.92,33.45q-.8-1.06,0,0c-5.67,3.25-7.21,4.09-13.94,4.78-1.22-.33-2.29-.2-3.19.4-4.93.09-7.74-.43-12.34-1.99-.61-.55-1.13-.94-1.99-.8-4.97-2.07-7.27-3.5-11.15-7.17-.35-1.07-.85-1.76-1.99-1.99-6.28-7.11-9.33-15.07-9.16-24.69.62-.76.63-1.94.4-3.19.57-5.54,2-11.44,5.57-15.93l1.51-.54c.93-1.16-.1.84-.71-.26.71-2.01,2.43-3.45,3.98-4.78h.4c.73-.63,1.48-.19,2.23,1.31,2.07-.71,3.32.86,1.35,1.88.14.52.27.91.4,1.19-5.96,5.84-9.26,15.19-8.76,23.49-.66-.09-.53.7.4,2.39.04.25-.04.55,0,.8.13.57-.14.97-.8,1.19l.4,1.99c.64.41,1.31.94,1.99,1.59,3.59,9.4,10.78,15.37,20.31,18.32l1.59.4c.26.02.54-.03.8,0l1.93.43c.21.5.36.49.46-.04.66.04,1.33-.04,1.99,0,1.49.98,3.62.7,5.08.48.52,1.23,3.19.96,3.11-.73.6-.28,1.07-.44,1.37.25q.88.6,0,0c-1.14.23-1.19-.49-.4-1.19,3.51-1.07,9.8-4.94,12.34-7.57q.56.52,0,0c8.82-9.1,10.63-23,4.98-34.25-.55-1.1-2.39-3.17-2.6-3.97.56-.99.56-1.12,0-.4-2.73-3.25-5.42-5.52-9.16-7.57-.7.12-1.18-.26-1.59-.8-.87-2.42,1.55-4.03,2.63-6,9.23,3.65,18.74,15.16,19.67,25.12Z"/>
  <path d="M142.21,73.34c.54.62,1.2,1.15,1.99,1.59,9.33,9.32,11.98,22.5,8.36,35.04-.54.27-.67.66-.4,1.19-2.01,6.07-3.6,8.55-7.96,13.14-.74.14-.97.38-1.19,1.19-1.13,1.08-1.55,1.44-2.79,2.39-.73-.25-1.26.15-1.59,1.19-4.91,3.39-7.25,4.44-13.14,5.57-2.47-.41-5.76-.08-7.96.8-1.11-.03-2.86.33-3.58-.4-.16-.34-.01-.46.4-.4,1.25-1.32,1.99-3.88,2.85-5.51,29.29.62,41.84-36.69,17.86-53.62.35-.75,1.26-.43,1.58-.6l3.58-1.59c1.02-.22.54-.53,1.99,0Z"/>
  <path d="M117.53,63.78c4.3.02,8.59.88,12.7,2.03l.84,7.12c-6.5-2.49-12.72-3.34-19.6-1.88-2.27.48-4.45,1.82-6.68,2.28-1.07.21-1.46.47-1.19.8-14.05,7.64-18.59,26.52-10.75,40.22.13.6.34,1.17.8,1.59.14.39.38.76.4,1.19.09.99-2.45,1.95-2.79.8.02,1.18-1.9,1.5-2.39.4l-1.19-.4c-.85-1.41-1.24-1.91-1.99-3.58-.2-2.19-.6-4.12-1.19-6.25l-.65-.18c.08-1.52-.24-2.83-.94-3.92-.23-1.97-.46-3.42-.4-5.57.05-1.05.75-1.2,2.1-.45l.69-.34c.28-.76.28-1.43,0-1.99-.52-.73-.68-1.77-.49-3.11-.64-.36-1.01-.78-1.1-1.27,3.25-13.47,15.93-27,30.66-27.08-.08,1,.05,1,.4,0,.95-.08,1.88-.22,2.79-.4Z"/>
  <path class="cls-5" d="M94.03,117.14c1.16.28,4.04,3.98,5.38,5.17,1.58,1.4,2.27,1.35,3.77,3.19q-.18.6,0,0c.46.05,2.37.74,2.42,1.04.18,1.33-1.25,2.26-1.62,2.95l-.74-.3c.74.41-1.07.89-1.25-.1-2.2,1.79-.98.09-.66.06.36-.03.61.39.66.73,2.02-.15,1.15,1.87-.8,1.19-4.95-2.46-7.41-5-10.75-9.16l-.09-3.58.88-.4s.5.1.69-.12c.26-.31.04-.99.12-1.08.07-.09.92.48,1.31.55.49.08.65-.15.68-.15Z"/>
  <path class="cls-5" d="M83.68,79.31l.55.08c-.47.91-.52,1.94-.15,3.11-.34.68-.63.84-.76,1.11-.22.46-.17,1.81-.49,2.02-.27.18-5.33.35-6.42.55-2.57.46-5.02,1.46-7.47,2.29l.85-7.11c1-.4,2.1-.55,3.13-.85.37.49.58.5.63.02l2.15-.82c2.63-.43,5.3-.51,7.96-.4Z"/>
  <path class="cls-14" d="M58.59,80.11c-1.17-1.24-2.43-3.05-3.58-4.38l6.37-3.19c.25,3.88,3.11,8.86,3.17,12.57,0,.49.02.4-.38.56l-1.1-.13-4.49-4.32v-1.13Z"/>
  <path class="cls-8" d="M143.81,65.37c.59-.57,2.86-3.45,3.38-3.49l5.78,3.29c-.31.67-11.81,4.94-13.54,5.78-.81.35-1.08.22-.8-.4,1.47-1.43,2.9-2.94,4.38-4.38.39-.13.65-.41.8-.8Z"/>
  <path class="cls-14" d="M64.97,70.55c.37-.22,3.6-2.82,3.98-2.39l-1.59,16.32c-1.26-.58-.9-2.59-1.19-3.58l-.4-.8c-.86-2.93-1.68-5.91-2.79-8.76.75-.12,1.41-.39,1.99-.8Z"/>
  <path class="cls-8" d="M136.59,55.47c.36.56-2.06,8.65-2.46,9.99-.32,1.09-.51,2.85-1.48,3.5l-1.99-16.32,5.93,2.83Z"/>
  <path class="cls-14" d="M141.02,58.21c1.25.69,2.75,1.78,3.97,2.59.01.56-7.02,6.56-7.96,7.76-1.13,1.17-1.39.64-.8-1.59.68-2.4,1.25-4.79,1.99-7.17.39-.76.79-1.42,1.19-1.99.31-.69,1.52-.36,1.59.4Z"/>
  <path class="cls-4" d="M51.03,78.51c.67-.16,1.53-.28,2.57-.38l.21.38c.86.82,2.23,1.79,3.19,2.79,1.29-.31,2.18,1.32,1.59,2.39.22.65-.18,1.04-1.19,1.19-3.45-1.32-6.86-2.77-10.35-3.99.86-1.21,2.71-1.69,3.98-2.38Z"/>
  <path class="cls-11" d="M57.8,88.47c1.42-.71,5.66,1.76,7.17,2.59.08.18-2.89,1.92-3.18,2.19-.45-.06-.85-.19-1.19-.4.71-2.88-.87-.55-1.56-.83-.14-.06-1.37-2.18-2.02-2.36l.8-1.19Z"/>
  <path class="cls-11" d="M83.68,91.26c2.85.19,1.86,2.48,1.59,4.38-.79.69-.79,1.36,0,1.99-.06.18.12.63-.04.78-.1.09-2.25-.28-2.75.02.09-3.04.51-4.34,1.19-7.17Z"/>
  <path class="cls-1" d="M82.88,104l.79.59.79-2.18-.39,5.57.79-3.18c.22,3.26,1.21,6.21.8,9.55-.34-.76-.51-1.21-.8-1.99.18-.69.17-.77-.4-1.19-.88-2.78-1.24-4.21-1.59-7.17Z"/>
  <path class="cls-23" d="M117.53,135.45l-.21-1.59c2.32,1.4,6.27-1.48,8.17.79-3.16.61-4.56.89-7.96.8Z"/>
  <path class="cls-4" d="M90.45,143.42c.27.32.24.92.4,1.19-1.2,0-1.54,1.37-2.24,1.5-.86.16-4.03-.63-5.17-.67-.94-.03-1.93.57-2.94.36l.79-1.19c.4.02.8-.02,1.19,0,.97.33,3.34.35,1.59,0l.26-.32c1.3.05,2.47-.24,3.72-.48.15.97.41.97.8,0,.41-.09,1.25-.29,1.59-.4Z"/>
  <path class="cls-13" d="M151.77,57.02l-3.98,1.59c-1.57-6.57.29-2.75,3.98-1.59Z"/>
  <path class="cls-10" d="M50.63,75.73c-.12.56-1.23.99-1.73,1.25-.47.24-2.71,1.38-3.04,1.13.7-5.16.79-3.12,4.78-2.38Z"/>
  <polygon class="cls-2" points="61.38 65.38 60.98 68.96 57 67.76 61.38 65.38"/>
  <path class="cls-15" d="M91.25,117.93c-.42.64.8,3.52-.8,3.98-.93-1.16-1.19-1.56-1.99-2.79-.24-.65-.34-1.05.4-.8l2.39-.4Z"/>
  <path class="cls-16" d="M153.36,59.4c.13.9.26,1.83.4,2.79.27.81-.13.81-.8.4-.81-.49-1.92-.98-2.67-1.5-.26-.18-1.17-.27-.52-.88.13-.13,3.23-.93,3.58-.8Z"/>
  <path class="cls-16" d="M64.86,64.71c.06.03.11.47.41.63.73.39,1.98.03,1.69,1.22l-3.58,1.6c.35-1.32-.17-4.3,1.48-3.45Z"/>
  <path class="cls-12" d="M143.41,54.62c1-.41,1.49-.35,1.59.8-.02.6-.29,1.25,0,1.99-.4.41-3.51-1.24-3.98-1.79.77-.31,1.61-.72,2.39-.99Z"/>
  <polygon class="cls-24" points="51.81 73.73 48.64 72.74 52.62 70.55 51.81 73.73"/>
  <path class="cls-2" d="M135.44,49.45l.4,1.99c.36,0,.63.27.8.8-.17.67-.92.24-1.19.4-.61.47-.91.4-.8-.4l-2.79-1.99c1.21-.07,2.43-.47,3.58-.8Z"/>
  <path class="cls-17" d="M139.03,53.03c-.24-.78-.69-2.05-.2-2.79.5.34,3.25,1.47,3.38,1.6.73.75-1.24,1.02-1.59,1.19-.84.53-1.37.53-1.59,0Z"/>
  <path class="cls-6" d="M56.21,72.54c-.53.2-.96.53-1.59.39.67-3.83.63-3.56,3.98-1.98-.07.5-1.14.96-1.59,1.19-.35-.06-.62.07-.8.4Z"/>
  <path class="cls-11" d="M54.21,125.5c-2.1.21-1.6-.32-1.99-1.59l-.4-1.99c-.06-.51-1.22-.58.8-1.19.25,1.43,1.09,3.46,1.59,4.78Z"/>
  <path class="cls-14" d="M102,129.08c.75-.03,2.24-1.25,1.99.4-.97,1.77.43,3.19-2.79,1.59l1.2-.4c-.01-.31-.34-.55-.4-.79-.68-.57-.68-.84,0-.8Z"/>
  <path class="cls-2" d="M61.38,86.48c-.98-.27-1.48-.46-2.39-.8l-1.59-.8c-.32-.91.54-.88,1.19-1.19.52.53,2.87,1.21,2.79,2.79Z"/>
  <path class="cls-23" d="M152.17,111.16c-1.04-.27-1.55-1.42-2.13-1.88-.33-.26-1.13.05-1.06-.31.58-2.91,2.5,1.04,3.58.99-.13.44-.26.78-.4,1.19Z"/>
  <path class="cls-4" d="M83.68,79.31c.66.03,1.33-.02,1.99,0,.25.79-.57,1.12-.79,1.59q-.62-.2,0,0c-.27.56-.53,1.06-.8,1.59-.15-1.07-.88-.84-1.2-2.19-.29-1.24,1.15.52.8-1Z"/>
  <path class="cls-23" d="M139.43,57.01c1.05.23,1.02.44,0,.8-.2.63-.23,1.84.21,2.4.53.66,1.08-.33,1.38.19-2.33,2.16-1.09-.3-2.79-.6.25-.79.32-1.94.4-2.79.26.01.53-.02.79,0Z"/>
  <path class="cls-15" d="M52.62,119.92l-1-1.59-.59.79-.4-3.58,1.59,1.99c.02.34.31,1.76.4,2.39Z"/>
  <path class="cls-24" d="M53.82,78.51c-1.58-.45-2.15,1.63-2.79,0,.52-.28,1.05-1.2,1.8-1.21,1.02-.01.81,1.05.98,1.21Z"/>
  <path class="cls-26" d="M136.24,66.97c.05,1-.4,1.84.8,1.59-.23.29-.54.82-.8,1.19-.55.87-.95,1-1.19.4.33-.97.95-2.34,1.19-3.19Z"/>
  <path class="cls-2" d="M75.72,79.71l-1.59.8.79.79-2.78.4.79-1.19c1.02-.3,1.57-.6,2.79-.8Z"/>
  <path d="M88.86,143.81c1.21,1.73-1.34,1.93-2.39,1.4l1.59-1.4c.25-.05.56.05.8,0Z"/>
  <path class="cls-4" d="M85.67,150.58c-1,.1-1.84.37-3.19.4-.47-1.26,2.42-1.04,3.19-.4Z"/>
  <path class="cls-23" d="M143.01,125.5c-1.08-2-3.48,1.69-3.18-1.19l.6.8c.87.2.49-.48.73-.65,1.85-1.31,1.29.09,1.47.23.21.16.91-1.16,1.58-.39-.42.45-.75.77-1.19,1.19Z"/>
  <path class="cls-27" d="M117.53,112.36l-1.57-2.21.38-.77.79.59c.13.83.35,1.45.4,2.39Z"/>
  <path class="cls-4" d="M46.25,111.16c.64.76.87,3.66-.4,3.19.02-1.35.3-2.19.4-3.19Z"/>
  <path class="cls-10" d="M138.63,129.08l-.79-1.19c.65.4,2.57-1.87,2.39,0-.62.48-.89.71-1.59,1.19Z"/>
  <path class="cls-19" d="M57,141.03c-.78-.74-1.25-1.15-1.99-1.99,1.07-.99,2.55,1.1,1.99,1.99Z"/>
  <path class="cls-6" d="M60.59,92.85c.83-.58,1.38-.71,1.19.4-.24.22-.54.54-.8.8-1.41.15-.6-.39-.4-1.19Z"/>
  <path class="cls-16" d="M144.2,74.93l-2.39-.4c.01-.84,1.37.14.4-1.19,1.46.53,1.13.73,1.99,1.59Z"/>
  <path class="cls-15" d="M88.86,118.33c-.03.22-.32.54-.4.8-.28-.42-.48-.66-.8-1.19.8-.21.56-1.32,1.19-1.19-.04.51.07,1.09,0,1.59Z"/>
  <path class="cls-1" d="M117.53,63.78v1.19c-1-.92-1.62-.72-2.79-.8-.07.35-.21.34-.4,0,1.31-.51,1.77-.4,3.19-.4Z"/>
  <path class="cls-20" d="M135.44,49.45c.05-.02.18-.59.79-.4-.37.85.51,2.73.4,3.18-.38-.16-.64-.42-.8-.8l-.4-1.99Z"/>
  <path class="cls-13" d="M105.18,97.63c-.03-.11,0-.26,0-.4-.01-.58.52-2.58.79-1.99.04.88.23,2.07-.79,2.39Z"/>
  <path class="cls-2" d="M70.14,148.99c-.91-.31-1.23-.48-1.99-.8.91-.73,1.55-.12,1.99.8Z"/>
  <path class="cls-27" d="M64.97,70.55v1.19s-1.99-.39-1.99-.39c.05-.63,1.56-.55,1.99-.8Z"/>
  <path class="cls-9" d="M79.3,144.61c0,.54.18.92-.39.79.25-1.37-1.38-.38-2-1.19.76.09,1.97.37,2.39.4Z"/>
  <path d="M84.08,144.61c.53.02,1.06-.02,1.59,0v.39c-.97-.13-2.45.41-3.18-.39.53.02,1.06-.02,1.59,0Z"/>
  <path class="cls-27" d="M51.83,95.24c.31-.39.28-.48.8-.8.05-.03.7.26,1.19-.4.13,1.19-1.01,1.3-1.99,1.19Z"/>
  <path class="cls-18" d="M139.43,70.95c-.31.15-.67.55-1.19.8-.82.3-.9-.15-.4-.8.2-.17.63-.24.8-.4l.8.4Z"/>
  <path class="cls-25" d="M153.76,61.79v.4c-.76-.56-.3-1.92-.4-2.79.13.05.32-.07.36.23.03.7.12,1.47.04,2.16Z"/>
  <path class="cls-9" d="M66.16,80.9c-.05-.18-.3-.45-.4-.8h.55c.44-.35.02-.95.64-.79.1.73-.03,1.36-.79,1.59Z"/>
  <path class="cls-3" d="M153.76,61.79l.39,1.59c-.13.17-.98-.67-1.19-.8.39.03.64.02.8-.4.04-.1-.02-.26,0-.4Z"/>
  <path class="cls-21" d="M104.78,73.34c-.28.47-.77.56-1.19.8l-.79-.4v-.39c.62-.09,1.41.11,1.99,0Z"/>
  <path class="cls-16" d="M140.22,73.34c-.96.77-2.39,1.46-3.58,1.59,1.49-.75,1.67-1.18,3.58-1.59Z"/>
  <path class="cls-27" d="M117.13,109.57c-1.23-.72-.39-1.5-.4-1.59.55.47.32,1.05.4,1.59Z"/>
  <path class="cls-7" d="M143.41,54.62c.43-.15.82-.68,1.59-.4,0,.39.02.8,0,1.19-.36-.73-.77-.96-1.59-.8Z"/>
  <path class="cls-19" d="M140.62,53.03c-.39.19-.74.94-1.39.8-.41,0-.11-.52-.2-.8h1.59Z"/>
  <path class="cls-2" d="M143.81,65.37l.4,1.19-1.19-.39c.27-.26.52-.53.8-.8Z"/>
  <path class="cls-21" d="M93.63,115.94c-.73-.21-.86-.9-.8-1.59.39.68.49.75.8,1.59Z"/>
  <path class="cls-21" d="M57,89.66h-.4c.38-.33.42-.81,1.19-1.19,0,.58-.21,1.04-.8,1.19Z"/>
  <path d="M84.48,111.16c.94-.13.88.06.79.99l-.39.2c-.15-.4-.27-.78-.4-1.19Z"/>
  <path class="cls-9" d="M76.11,144.21c-1.04-.09-.77-.14-1.59-.4l1.59.4Z"/>
  <path class="cls-22" d="M58.99,85.68c-.52-.13-1.38-.18-1.59-.8.76.29,1.5.76,1.59.8Z"/>
  <path class="cls-6" d="M57,72.14c-.29.15-.44.26-.8.4-.06-1.91.06-2.26.8-.4Z"/>
  <path class="cls-15" d="M110.76,134.66c-.05.88-1.49.68-1.59.8-.24.28.45,1.52.4,1.58-.14.15-1.36.51-1.59-.2-.06-.18.76-2.04.84-2.12.27-.27,1.44.01,1.94-.07Z"/>
  <path class="cls-1" d="M67.75,141.83c-.46,1.4-1.86-.26-1.6,1.18h-.39s-1.2-1.58-1.2-1.58l3.18.4Z"/>
  <path class="cls-11" d="M109.3,128.55c.08.15,1.29.23.28,1.48-.3.37-1.12.33-1.22.24-.21-.19.57-2.2.4-2.78.66-.11.28.58.54,1.06Z"/>
  <path class="cls-4" d="M115.53,107.18h-1.19s0-2.39,0-2.39c1.03.4,1.34,1.34,1.19,2.39Z"/>
  <path class="cls-11" d="M104.35,139.87c.08.05.53,1.44.43,1.55l-1.99.4c-.34-1.33.97-.58,1.19-.8.85-.8-1.02-.65-.79-1.19.36.04.91-.12,1.16.03Z"/>
  <path class="cls-11" d="M50.63,126.29c.06-.06-.17-.74.21-.82,1.08-.22,1.58.65,1.38,1.61-.26.02-.53-.02-.79,0-.98-.04-1.25-.31-.8-.8Z"/>
  <path class="cls-1" d="M104.78,93.24c-.61.53-1.99-.23-1.99-1.19.75-.42,2.65.62,1.99,1.19Z"/>
  <path class="cls-1" d="M50.63,126.29l.8.8c-.92.09-2.16.61-2.39-.39.34-.12,1.48-.29,1.59-.4Z"/>
  <polygon class="cls-23" points="97.22 141.83 95.23 143.01 96.03 142.42 95.23 141.83 97.22 141.83"/>
  <polygon class="cls-11" points="115.13 117.54 114.73 119.92 114.34 119.92 114.34 117.54 115.13 117.54"/>
  <path class="cls-9" d="M102.79,135.85c.07-.08,1.66-.77,1.99-.79-.01,1.31-3.16,2.07-1.99.79Z"/>
  <path class="cls-4" d="M51.43,107.98c-.3-.16-1.19.38-.8-.96.02-.08.97-.94,1.19-1.02.11.68-.35,1.38-.39,1.99Z"/>
  <path class="cls-21" d="M101.2,143.41l.79-1.19c2,.08.85,1.97-.79,1.19Z"/>
  <path class="cls-2" d="M99.61,145.81c-.83.78-1.49-1.96-.6-1.98.53-.01.49,1.55.6,1.98Z"/>
  <path class="cls-23" d="M53.02,98.42c-1.35-.41-.57-1.94.4-2.39l-.4,2.39Z"/>
  <path class="cls-5" d="M109.56,94.04c.53.96-.21,1.75-1.19.8-.23-.95.44-1.52,1.19-.8Z"/>
  <path class="cls-15" d="M111.15,101.61l-.79,2.38c.54-.63-.54-2.73.79-2.38Z"/>
  <path class="cls-1" d="M50.63,100.81c.27.29-.11,1.58-.79,1.59-.67-.86.26-2.16.79-1.59Z"/>
  <path class="cls-17" d="M97.61,146.21c-.23.67-1.74,1.09-2.39,1.19.34-.9,1.48-1.23,2.39-1.19Z"/>
  <path class="cls-12" d="M109.56,94.04c-.58,0-1.02.23-1.19.8-.75-.72.17-2.66,1.19-.8Z"/>
  <path class="cls-23" d="M54.21,103.2c-.05.06-.26-.02-.39,0-.06-.73-.13-1.74.79-1.99.03.41-.23,1.81-.4,1.99Z"/>
  <path class="cls-19" d="M107.17,91.25c-.29.25-1.63-.89-1.59-.99.58-1.46,1.69.9,1.59.99Z"/>
  <path class="cls-11" d="M58.19,135.45s.14.89.4,1.19h-1.19s0-1.19,0-1.19c.25.02.71-.06.79,0Z"/>
  <path class="cls-12" d="M50.23,125.1c-.07.08-1.39-1.06-1.98-.8v-.39c.83-.39,2.53.5,1.98,1.19Z"/>
  <path class="cls-2" d="M70.14,147.8c-.07.08-1.92-1.04-1.59-1.19.72-.34,2.06.61,1.59,1.19Z"/>
  <path class="cls-9" d="M53.41,135.45c-.65-.29-1.32-.87-1.19-1.59.65.29,1.32.87,1.19,1.59Z"/>
  <path class="cls-1" d="M109.16,134.25l-1.19.8c-.1-.73-.02-1.16.59-1.58l.59.78Z"/>
  <path class="cls-23" d="M109.96,101.61c.06.05-.46,1.33-.6,1.59-1.02-.45-.08-2.15.6-1.59Z"/>
  <path class="cls-27" d="M109.57,127.09l.4-1.99h.39c.06.74.11,1.75-.79,1.99Z"/>
  <rect class="cls-12" x="114.34" y="121.92" width=".39" height="2.39"/>
  <path class="cls-23" d="M52.22,123.91c-.28-.93-.28-1.05-.4-1.99.65.34.37,1.35.4,1.99Z"/>
  <rect class="cls-12" x="110.36" y="127.89" width=".39" height="1.99"/>
  <path class="cls-17" d="M104.78,88.86h-1.19s0-.79,0-.79c.55-.12,1.06.21,1.19.79Z"/>
  <path class="cls-12" d="M51.43,107.98c.7.37.35,1.21.39,1.99h-.39c.02-.66-.05-1.33,0-1.99Z"/>
  <path class="cls-27" d="M100.8,90.86v.79c-.59.13-.83-.18-1.19-.6l1.19-.2Z"/>
  <path class="cls-15" d="M90.85,144.61c.77,0,1.32.39,1.19,1.19-.55-.14-.93-.73-1.19-1.19Z"/>
  <path class="cls-9" d="M78.11,145.01c-.13.58-.64.91-1.19.79v-.79s1.19,0,1.19,0Z"/>
  <path class="cls-4" d="M144.2,117.53l.39-1.59-.78-.19c.28-.79.79-1.16,1.58-1.4.5,1.95,1.6,2.69-1.19,3.19Z"/>
  <path class="cls-11" d="M146.19,82.5c-.56,1.11.59,3.24-1.59,2.79l.79-.39c-.29-1.52-.98-1.94.8-2.39Z"/>
  <path class="cls-17" d="M146.19,82.5c.2-.39,1.22-.35.79-1.6-2,1.15.21-1.4.4-1.19,1.32,1.55.3,1.5.16,1.74-.18.32-.12.83-.24.95-.31.29-.83.02-1.11.09Z"/>
  <path class="cls-15" d="M150.84,112.65c-.04.1-.49.1-.54.22-.33.77.35,1.73-.92,1.48.06-1.27.6-2.14,1.2-3.18.74-.07.43,1.1.26,1.48Z"/>
  <path class="cls-27" d="M138.69,123.05c.23.22.7-.21.94-.34l.19.79-3.19.4c.18-.41,1.54-1.5,1.79-1.59.36-.12.09.58.26.74Z"/>
  <path class="cls-15" d="M139.82,77.72c-.31.34-2.28-.95-1.99-1.19,1.11-.74,2.77.31,1.99,1.19Z"/>
  <path class="cls-12" d="M142.61,119.92c-.15.15-.8-.59-1.12-.34-.2.15.22,1.09-.86.74.29-2.22,2.8-1.23,1.99-.39Z"/>
  <path class="cls-11" d="M153.76,101.61l-.6,1.59c-1.05-.96-.96-1.91.6-1.59Z"/>
  <path class="cls-1" d="M148.58,88.87c.11.11-.58,1.86-.4,2.38h-.39s0-2.38,0-2.38c.25.02.73-.06.79,0Z"/>
  <path class="cls-15" d="M152.96,98.42c-.9-.35-.17-2.39-.39-3.18.9.35.17,2.39.39,3.18Z"/>
  <path class="cls-15" d="M149.38,92.85c.06.07-.03.54,0,.79h-1.19s0-1.19,0-1.19c.3.27,1.15.35,1.19.4Z"/>
  <path class="cls-21" d="M131.46,131.47v1.19s-1.19-.4-1.19-.4c-.19-.16.7-1.05,1.19-.79Z"/>
  <path class="cls-12" d="M147.39,117.54c.08.06-.7,1.59-1.19,1.59-.07-.7.53-2.15,1.19-1.59Z"/>
  <path class="cls-12" d="M143.8,121.52l-.2,1.19c-.42-.36-.73-.6-.6-1.19h.79Z"/>
  <path class="cls-17" d="M136.64,125.1v.79s-1.19,0-1.19,0c.13-.58.64-.91,1.19-.79Z"/>
  <rect class="cls-9" x="143.41" y="77.32" width=".39" height="1.99"/>
  <path class="cls-27" d="M123.89,129.08v.79s-1.19,0-1.19,0c.13-.58.64-.91,1.19-.79Z"/>
  <path class="cls-17" d="M150.57,86.08c-.77-.19-.9-.88-.79-1.59.19-.41.95,1.07.79,1.59Z"/>
  <path class="cls-15" d="M149.38,106.39c.12.55-.21,1.06-.79,1.19v-1.19s.79,0,.79,0Z"/>
  <path class="cls-1" d="M114.74,64.18c1.45,1.75-1.89,1.83-2.39.8.93.27,1.56-.63,1.99-.8.13,0,.27,0,.4,0Z"/>
  <path class="cls-23" d="M88.05,85.68c-1.42,1.35-.07-2.87.8-2.79.07.45-.67,2.66-.8,2.79Z"/>
  <path class="cls-23" d="M96.82,76.92c.33-.2,2-1.52,1.98-.2-.01,1.02-1.74.12-1.98.2Z"/>
  <path class="cls-11" d="M125.88,65.38c.68.59-1.26,1.45-1.59,1.19-.15-.12.77-1.9,1.59-1.19Z"/>
  <path class="cls-15" d="M94.43,79.31c.1.11-.06,1.2,0,1.59l-1.59-.79c-.46-1.2,1.53-.86,1.59-.79Z"/>
  <path class="cls-1" d="M106.77,69.75v1.2c-.87-.1-1.88-.25-1.59-1.19h1.59Z"/>
  <path class="cls-24" d="M98.41,72.54c-.05.07-1.35-.46-1.59-.6.67-1.31,2.02.04,1.59.6Z"/>
  <path class="cls-15" d="M89.65,90.85c-.06.06-.54-.02-.79,0v-1.99s.39,0,.39,0c-.1.46.54,1.85.4,1.99Z"/>
  <path class="cls-21" d="M88.05,117.13c-.05.06-.26-.02-.39,0-.15-.33.26-2.21.79-1.99.1.21-.28,1.86-.4,1.99Z"/>
  <path class="cls-16" d="M103.99,68.96h-2.39s0-.39,0-.39c.97-.02,1.61-.24,2.39.39Z"/>
  <path class="cls-21" d="M103.99,68.96c.22.18.59.06.4.79h-1.59s0-.39,0-.39c.34-.15,1.2.3,1.19-.4Z"/>
  <path class="cls-16" d="M126.29,70.55h1.99s0,.39,0,.39c-.89.26-1.32-.14-1.99-.39Z"/>
  <path class="cls-11" d="M126.29,70.55c-.18-.07-.55.06-.8,0-.19-1.05.23-.83,1.2-.79l-.4.79Z"/>
  <path class="cls-1" d="M85.27,97.63c-1.12-.66-1.04-1.21,0-1.99.98-.07.14,1.6,0,1.99Z"/>
  <path class="cls-17" d="M96.82,76.92c-.08.03-.67,1.24-1.19,1.19-.24-1.13.73-.91,1.19-1.19Z"/>
  <polygon class="cls-21" points="101.2 74.14 101.2 74.53 99.61 74.93 99.61 74.14 101.2 74.14"/>
  <polygon class="cls-12" points="90.45 85.68 90.05 87.27 89.66 87.27 89.65 85.68 90.45 85.68"/>
  <path class="cls-23" d="M103.19,125.5c1.15,1.41,2.57,1.88-.4,1.99-.13-.28.33-.73.36-1.02.01-.12-1.54-.32-.76-.97.04-.04.57-.03.79,0Z"/>
  <path class="cls-21" d="M102,129.08c.04.25-.06.58,0,.8-1.06-1.11-.67,1.19-1.59.39-.06-.05.35-1.53.4-1.59.19-.21,1.04.41,1.19.4Z"/>
  <polygon class="cls-12" points="72.93 86.47 70.94 86.47 70.94 86.08 72.93 85.68 72.93 86.47"/>
  <path class="cls-12" d="M58.6,77.71c-.72-.63,1.51-1.29,1.59-1.19.48.63-1.07,1.64-1.59,1.19Z"/>
  <path class="cls-21" d="M133.85,57.01c.07.07.47,1.92.4,1.99-1.05,1.04-1.71-3.2-.4-1.99Z"/>
  <path class="cls-21" d="M135.04,56.21l-1.59.4.4-1.19c.47-.24,1.37.56,1.19.79Z"/>
  <path class="cls-23" d="M133.45,64.57h-.39s0-2.38,0-2.38h.39c.3.83.14,1.54,0,2.38Z"/>
  <path class="cls-21" d="M55.01,80.9c.06.07-.02.98.36,1.42.58.68,1.59.22,1.63.96-1.53.05-2.6-.13-2.77-1.8-.08-.8.55-.85.78-.59Z"/>
  <path d="M85.27,97.63c-2.2-.03-1.57-1.45-1.59-3.19.91.08.66,1.43.8,1.6.1.12.63-.39.79-.4-.09.63.06,1.35,0,1.99Z"/>
  <path d="M135.84,51.44c-.3-.7-.61-1.07-.4-1.99.72.12.3,1.31.4,1.99Z"/>
  <path class="cls-5" d="M84.87,80.9c-.58,1.34-1.31-.87,0-1.19-.06.35.1.96,0,1.19Z"/>
</svg>