<?xml version="1.0" encoding="UTF-8"?>
<svg id="Layer_1" data-name="Layer 1" xmlns="http://www.w3.org/2000/svg" viewBox="0 0 200 200">
  <path d="M137.27,102.9c-4.72,5.6-18.76,2.91-24.82.53-3.51-1.38-.34,1.88,2.17,2.99,11.56,5.1,18.42-2.2,27.32,0,4.66,1.15,8.87,6.08,14.35,1.86,3.02,2.88-.18,4.59-2.55,6.27,4.76,3.59,10.02-2.25,13.26-5.53,2.96,9.12-1.75,16.48-8.83,21.74l3.67-1.11c-1.08,10.51-12.81,13-21.58,10.87-5.58-1.36-5.37-4.6-9.66-6.57s-10.95-1.72-15.44-1.16c-9.6,1.21-21.44,10.04-30.45,3.51-2.03,1.27.06,2.38,1.32,3.09,12.43,6.98,29.35-9.9,43.56-2.97,5.22,2.55,6.62,7.21,6.41,12.76l-1.47.36c-8.77-14.68-23.47-.22-35.43,2.59-8.89,2.09-15.5,1.55-23.4-3.18-9.41-5.63-14-17.62-8.2-27.63,2.96-5.12,11.12,5.38,15.88,3.36,3.03-1.29,2-3.64,3.13-5.58.68-1.16,2.75-1.97,3.53-4.77.41-1.47-.15-3.58.54-4.62.58-.87,3.59-.82,3.94-2.63.25-1.3-1.8-7.33-1.34-10.99.4-3.16,3-6.4,3.53-9.73.36-2.26,1.09-6.96-2.02-6.82-3.52,9.92-13.12,13.39-22.31,16.42-8.31,2.74-15.02,1.29-19.4,10.85-2.63,5.74-.97,10.81-4.92,16.46-1.81,2.59-4.67,4.84-8,4.91,4.75-4.86,4.94-13.18,1.63-18.94-6.52-11.36-11.58-17.61-8.84-32.1,5.01-26.47,38.37-39.99,59.22-22.63,5.11,4.25,4.43,8.27,7,11.44,1.07,1.32,3.63,1.98,5.51,4.08,7.42,8.28,4.86,13.48,7.25,22.24,1.94,7.12,10.56,9.93,17.2,9.42,4.83-.37,5.05-.97,6.61-5.17,1.97,1.62,3.55,4.12,1.62,6.41ZM156.67,121.54c-11.98,6.25-19.13-4.6-31.27-3.59-6.97.58-12.69,4.03-20.38.65,5.85,7.15,15.09,1.45,22.31,1.67,9.64.29,16.88,9.19,27.91,3.12,1.02-.56,1.83.07,1.44-1.85ZM161.84,120.06c-2.8.97-4.44,3.46-7.16,5.01-6.29,3.6-10.41,3.81-17.15,1.21-1.18-.46-1.75-.78-1.51.77,8.51,4.95,18.19,3.01,24.35-4.41.69-.83,1.79-1.19,1.47-2.58Z"/>
</svg>