<?xml version="1.0" encoding="UTF-8"?>
<svg id="Layer_1" data-name="Layer 1" xmlns="http://www.w3.org/2000/svg" viewBox="0 0 168.72 203.36">
  <defs>
    <style>
      .cls-1 {
        fill: #fff;
      }
    </style>
  </defs>
  <g>
    <path class="cls-1" d="M21.35,143.65c-.19-1.03-.85-5.88,1.35-5.42,2.14,10.3,15.82,20.32,25.57,22.74,3.36.84,9.65-1.54,8.54,3.04-16.21,1.75-25.82-9.73-35.47-20.36Z"/>
    <path d="M69.09,40.49c-1.14-2-3.98-4.29-4.18-7.36l4.21-4.85,2.01,2.74,4.08-2.76c1.95,1.78,4.21,2.71,6.87,2.82,9.12.36,36.46-2.72,46.01-4.51,12.01-2.25,13.54-4.25,19.46-14.58l2.72,2.76,7.49-2.76-1.34,19c3.88-2.85,6.8-6.34,12.26-5.42,1.11.98-12.64,24.53-13.86,26.24-2.42,3.4-16.48,13.66-20.65,16.1-11.48,6.71-45.71,15.8-52.36,23.22-1.2,1.33-12.37,27.43-12.4,29.02-.06,3.18,11.8,14.05,3.07,15.41-11.48,1.78-29.19-15.16-33.42-25.26,3.23-7.44,7.96-13.83,11.2-21.37,6.36-14.8,7.38-32.5,28.39-33.51l-9.54-14.92c18.78-1.69,39.66-.91,58.07-5.4,2.31-.56,3.98,1.34,3.31-2.74-19.07,4.31-38.57,4.2-57.99,5.42-2.75.17-3.93-1.07-3.39,2.72Z"/>
    <path d="M48.63,173.53l-16.35,29.84c0-1.71-.13-3.4-1.35-4.76-2.08-2.31-14.45-7.62-19.11-12.21C9.49,184.11-.04,171.31,0,168.75c.38-2.61,14.06-22.39,15.87-21.02,3.9,14.66,18.57,23.13,32.75,25.8Z"/>
    <path d="M21.35,143.65c-1.2-1.32-1.8-2.94-4.07-2.75l8.15-10.83c.74,11.88,13.59,22.13,24.27,25.39,3.2.98,7.37,3.09,9.84-.29-10.56-3.11-21.59-8.97-28.61-17.67-8.8-10.91-4.99-9.46.81-18.78,1.52-2.44.47-8.07,5.97-7.65,2.62,3.43-1.08,6.6-.78,8.21,1.47,7.86,18.47,19.58,26.35,21.33,1.36.3,4.8,1.36,4.44-1.03l-6.81-4.08,12.27,2.71c1.15,1.03-12.17,16.95-13.69,19.64-1,1.76-1.73,4.11-2.67,6.14,1.11-4.58-5.18-2.2-8.54-3.04-9.75-2.43-23.43-12.45-25.57-22.74-2.2-.46-1.54,4.39-1.35,5.42Z"/>
    <path d="M56.81,164.01c-1.08,2.3-1.83,7.09-4.07,8.14-.92-5.32-8.51-5.39-13.02-8.1-6.77-4.06-16.88-12.47-18.38-20.4,9.65,10.63,19.25,22.1,35.47,20.36Z"/>
    <path d="M44.52,168.1c.3,2.51-2.84,1.17-4.13.71-9.28-3.31-21.73-15.11-23.13-25.16,7.28,10.22,13.9,21.32,27.26,24.45Z"/>
  </g>
  <path d="M80.23,20.39c10.73-6.98,33.91-16.87,59.1-10.96,3.26.77,3.72,5.2.64,6.52-11.5,4.9-33.26,12.3-57.77,11.15-3.48-.16-4.89-4.81-1.97-6.71Z"/>
  <path d="M89.86,5.74c6.29-3.14,19.87-7.59,34.63-4.93,1.91.34,2.18,2.34.37,2.93-6.74,2.2-19.49,5.53-33.85,5.01-2.04-.07-2.86-2.16-1.15-3.02Z"/>
</svg>