<?xml version="1.0" encoding="UTF-8"?>
<svg id="Layer_1" data-name="Layer 1" xmlns="http://www.w3.org/2000/svg" viewBox="0 0 200 200">
  <defs>
    <style>
      .cls-1 {
        fill: #2c2b2c;
      }
    </style>
  </defs>
  <path class="cls-1" d="M38.73,149.73c1.84-.21,3.72-.69,5.56-.88,3.24-.33,4.5,1.04,6.87-2.01l15.48-34.29c.17-1.17-2.68-4.34-3.36-5.79-3.71-7.91.92-18.2,4.37-25.56,3.91-8.33,8.94-16.74,14.78-23.85l1.68-.33c4.39,1.57,8.76,3.24,13.22,4.58,2.17.66,11.55,2.08,11.92,4.06.22,1.17-4.36,7.73-4.82,9.48,1.09.83,16.92-6.9,19.32-7.88.88.07,1.99,3.31,2.33,4.22,4.12,10.91,10.02,35.19,7.37,46.23-.87,3.64-2.33,4.44-3.65,7-1.59,3.08.98,10.05,1.94,13.49,2.43,8.71,5.45,17.33,8.27,25.92,1.24,2.14,11.59,1.6,11.93,3.18.08.38-.42,1.17-.68,1.52-.4.52-9.27,5.69-10.56,6.31-2.1,1.02-4.49,1.42-6.52,2.59h-1.78c-.9-2.49,2.44-4.84,3.64-6.79.73-1.19,2.25-4.13,2.17-5.42-.07-1.12-1.51-3.37-1.94-4.76-3.31-10.74-6.06-21.68-9.29-32.44-.62-2.17-3.48-2.08-5.46-2.97-.95-.43-2.29-1.16-3.1-1.78-6.97-5.33-13.52-29.19-17.76-38.18-.23-.5-.43-.99-.89-1.33-3.07,6.15-5.42,11.87-9.76,17.32s-9.72,10.99-16.88,11.97c-3.34.46-3.52-1.32-5.34,2.21-5.3,10.29-9.22,21.67-13.97,32.25.61,4.18,3.47,7.99,3.99,12.16-1.14,1.15-17.21-7.35-19.09-9.32v-.89ZM105.75,66.72l-22.33-7.08c-1.5,2.43-2.62,5.02-4.1,7.47-1.14,1.88-9.86,13.91-8.62,15.13,5.36.72,10.81.42,16.23.43,1.06,0,2.06.5,3.09.5,2.32,0,4.99-.85,7.47-.55l.69-.64c.63-2.09,8.09-14.51,7.57-15.25ZM123.48,71.19c-.74-.47-11.92,4.01-13.56,4.75s-6.86,3.11-7.46,4.53c-1.64,3.9,3.87,14.08,5.54,17.98l22.46-.66c-.41-3.3-5.55-25.7-6.97-26.6ZM68.55,84.54c-2.33,6.34-5.59,13.63-2.95,20.34,1.25,3.19,3.92,5.77,7.54,5.77,7.54,0,19.26-15.49,21.91-22.04,1.24-3.05,1.38-3.33-2.38-3.7-6.04-.6-13.31.19-19.55.01-1.51-.04-3.01-.84-4.57-.38ZM131.02,100.95c-6.57.47-14.16-1.59-20.56-.04-1.5.36-1.21.94-.92,2.2.73,3.23,5.72,14.12,7.99,16.44,1.84,1.89,7.05,4.91,9.68,4.34,6.23-1.35,5.18-18.25,3.81-22.94Z"/>
  <path class="cls-1" d="M161.27,90.68v.44c-3.35,1.98-4.8,4.89-6.89,7.99l-4.06-3.93c-1.71-1.28-4.32-.28-5.46-2.11-.18-1.09,2.16-1.78,2.86-2.39,2.86-2.49,3.52-5.72,5.34-8.87,1.77-.59,1.99,3.57,2.65,4.88,1.21,2.41,3.35,2.8,5.55,3.99ZM149.28,92.45c1.5-.09,3.79,2.57,5.04,2.19.34-.1,2.43-2.98,2.41-3.3-.02-.3-3.47-4.37-4.1-4.21-.32.08-3.7,4.83-3.35,5.32Z"/>
  <path class="cls-1" d="M87.12,22.3c1.85,1.34,1.39,4.19,2.34,6.32.55,1.24,2.49,2.87,2.57,3.69.16,1.51-1.14,1.39-1.8,2.2-1.41,1.73-1.63,3.43-2,5.55-1.12-.02-2.33-2.47-3.36-3.3-1.57-1.26-3.4-1.26-4.58-2.08-2.36-1.66,1.61-2.54,2.68-3.66,2.02-2.1,2.49-6.02,3.26-8.72h.89ZM87.12,28.52c-.3-.21-3.65,4.15-3.54,4.63.04.19,2.72,2.42,2.9,2.46.7.16,2.38-2.79,2.4-3.31.04-1.19-1.63-2.55-1.76-3.78Z"/>
  <path class="cls-1" d="M121.81,42.78c.07-.1,1.8-.56,2.4-.93,2.11-1.31,5.16-3.57,6-5.98.54-1.53-.09-4.03,1.97-3.79,1.1.35.53,3.81.77,5,.12.61.93,2.12,1.31,2.69.87,1.31,5.36,4.49,5.25,4.95-.12.51-5.13,2.23-6.43,3.35s-4.24,6.43-5.33,6.2c-.6-.13-1.18-4.22-1.76-5.35-.97-1.9-5.44-4.37-4.19-6.14ZM124.87,43.62v.65s3.82,4.64,3.82,4.64c.7.17,5.78-3.99,5.9-4.69s-3.23-4.52-3.74-5.49c-1.02-.25-4.41,4.92-5.98,4.89Z"/>
  <path class="cls-1" d="M55.6,68.93c.92,1.09-2.84,3.46-3.52,4.34-1.62,2.08-1.78,3.91-2.89,5.89-2.4,4.26-2.79-1.59-5.59-3.33-1.26-.78-6.63-.64-3.69-2.85,4.34-3.27,4.74-4.15,6.5-9.48.29-.89.62-3.76.77-3.9.26-.25,1.15,0,1.54.46,1.41,1.67-.14,5.06,3.84,7.7.8.53,2.95,1.04,3.06,1.17ZM47.61,65.37c-.07,1.63-3.95,6.32-3.88,7.33.05.72,3.36,2.73,4.1,3.3.35-.03,3.77-5.62,3.77-5.98s-3.75-4.84-4-4.65Z"/>
</svg>