<?xml version="1.0" encoding="UTF-8"?>
<svg id="Layer_1" data-name="Layer 1" xmlns="http://www.w3.org/2000/svg" viewBox="0 0 200 200">
  <path d="M156.97,52.94c-.37.64-4.35,1.25-3.16,4.28,17.69,5.12,36.74,10.31,18.76,30.95-3.18,3.65-7.38,3.39-5.38,10.13l-.84-3.35-2.5,1.67c-.24-2.57-.24-4.79-3.38-4.19l.86-1.66-2.53-.83,7.8,1.54c10.54-8.17,17.11-25.13-1.09-28.34,4.57,5.19,4.42,11.4-.29,16.45-1.74,1.86-8.85,5.28-9.38,6.14-1.02,1.65.55,4.64-1.24,5.03l-.44-3.35-2.08,1.68-.06-3.31-2.46-.05,1.67-1.24-2.51-2.09c1.9-.46,3.4,1.42,5.12,1.28,3.78-.32,11.91-5.66,12.96-9.64,3.25-12.31-8.44-10.28-15.29-15.83l-30.48,27.95c9.55,8.78,20.75,17.19,28.39,27.78,10.19,14.11,10.79,20.1-5.17,28.9-13.58,7.48-38.33,12.97-51.36,2.35-2.99-2.44-6.27-9.08-7.76-9.85-.47-.24-6.05-1.71-6.4-1.65-1.08.17-3.49,2.59-5.03,3.29-9.92,4.53-34.72-2.25-42.17-10.16-5.31-5.64-10.95-26.24-11.33-33.99-.35-7.3,8.77-8.36,14.69-8.78,16.02-1.15,32.35,5.45,47.1,10.72,5.77-9.2,8.86-17.97,21.72-16.46,4.32.51,7.33,3.12,11.45,3.62,6.86-6.42,17.01-11.92,23.51-18.35,1.66-1.64,2.48-4.27,2.69-4.44,1.51-1.25,7.1-.09,4.86-6.04,4.33.63,7.01-.97,9.66-4.18,1.33.82,1.81,2.82,1.1,4.03ZM131.63,70.76l-7.25,5.34,1.66,1.72c1.69.89,6.16-3.85,7.56-5.09.23-1.07-.83-2.07-1.97-1.98ZM112.61,83.24c-4.53-2.01-9.52-4.09-14.64-3.31-9.01,1.39-.07,14.54,2.35,14.12l12.29-10.81ZM120.99,81.57c-1.35-1.95-7.52,1.67-6.69,4.55,1.17,4.04,8.83-1.45,6.69-4.55ZM92.45,83.22c-2.44-.59-2.5,2.56-2.19,4.21.41,2.18,4.02,9.94,6.8,9.19.97-.26,1.45-1.36.86-2.51-1.59-3.11-6.32-6.2-5.47-10.89ZM34.33,85.99c-9.49.87-13.74,1.85-4.3,8.81,6.31,4.65,31.2,14.35,38.66,14.13,1.69-.05,3.47-1.37,5.23-1.89,1.46-.43,3.14-.14,4.47-.56,2.63-.82,4.46-8.98,1.21-10.88s-10.45-3.92-14.24-5.06c-10.26-3.1-20.19-5.55-31.05-4.55ZM119.03,88.34l-13.12,12.89c8.6,8.47,17.3,18.76,27.59,25.23,17.69,11.14,29.36,9.79,13.89-11.34-2.92-3.99-25.08-27.35-28.36-26.78ZM108.12,89.23c-2.32,2.41-6.98,3.38-5.89,7.21.24.84.76,2.41,1.63,2.68,2.27.72,13.1-9.28,4.26-9.89ZM22.72,90.77c-.5-.43-2.22-.22-1.62,1.19,1.85,6.61,24.85,16.02,31.5,18.01,2.32.69,6.5,1.94,8.73,2.2,1.57.18,2.2.88,3.38-.89-13.79-5.56-29.56-8.52-41.09-18.51-.77-.66-.79-1.91-.9-2ZM94.13,97.47c-1.82-.56-3.33-.59-5.04.4l-.83,4.62c.52.6,6.83-3.74,5.87-5.01ZM26.94,108.34c-2.16-3.59,1.44-10.15-4.2-10.87.83,2.92,1.03,6.42,2.14,9.2.54,1.35-.09,2.05,2.06,1.67ZM86.57,97.46l-2.59.49-1.6,7.04c4.74-.28,4.5-3.68,4.19-7.54ZM100,103.34c-2.5-.28-3.5-2.29-4.61-4.2-1.04,2.1-5.41,2.95-4.65,5.4l4.65,3.01,4.08-2.48.54-1.73ZM105.88,102.49l-3.18,2.08c6.48,8.96,33.16,34.66,43.88,33.91,1.62-.11,3-1.59,4.67-1.67.19-2.18.11-1.39-1.27-1.64-17.38-3.11-31.04-17.82-42.87-30.16-.68-.71-1.16-1.52-1.23-2.53ZM30.31,120.08c.88.78,8.72-2.95,9.06-4.7-.36-3.45-3.12-15.18-8.26-10.85-5.61,4.72-1.29,9.57-.79,15.56ZM96.66,119.23c2.26-.75,12.1-.66,12.6-2.95l-8.82-10.43c-1.68,0-4.49,11.28-3.77,13.38ZM44.57,108.36l-5.03-1.68.84,7.53c1.07,1.26,5.15-4.54,4.19-5.85ZM44.59,126.77l9.9-7.23c-2.09-10.87-6.69-12.16-13.1-3.12l3.2,10.35ZM68.69,110.98c-1,.28-2.09,1.69-2.49,2.63-3.89,9.06,17.31,24.28,22.91,18.64,5.71-5.76-13.63-23.13-20.42-21.26ZM61.39,129.28c1.37.97,5.24-3.92,4.97-5.44l-3.74-9.63c-8.52,4.3-4.41,8.76-1.23,15.07ZM40.37,118.4l-9.23,3.36c-.88,1.19,5.78,10.77,10.42,7.46,3.57-2.55-1.38-7.43-1.19-10.82ZM117.56,128.37c1.27-4.59-2.48-7.95-6.2-9.97-1.63.34-2.24,9.88-2.11,11.72l8.31-1.75ZM95.81,132.64c3.92-1.09,11.19.63,11.81-4.56.33-2.73-.32-6.02-.06-8.84l-11.75,1.67v11.73ZM60.52,131.77l-5.44-9.99c-3.17,3.08-12.04,6.38-7.18,11.31,4.21,4.26,8.67,1.06,12.61-1.32ZM65.82,135.73c3.3,2.66,11.12-1.71,10.67-3.5l-7.98-6.28-5.4,5.55c-.08.49,2.27,3.88,2.71,4.23ZM129.29,135.89c2.18-3.52-7.32-9.17-9.01-6.48-.59.94.01,8.53.77,9.06l8.24-2.59ZM118.38,140.07l-.74-9.95-8.02,2.46-.37,9.26,9.13-1.78ZM107.57,133.48l-10.97,1.19c-1.71,1.15-.66,7.71.09,9.67l10.52-1.6.36-9.26ZM93.3,135.15h-5.04s4.21,7.54,4.21,7.54c1.92-1.11.33-5.58.83-7.54ZM143.69,139.34c-3.39.22-6.73-2.86-9.25-3.79-3.54-1.3-.15,7.45.93,8.76,1.26-.12,10.03-3.14,8.33-4.98ZM122.75,147.65l10.84-2.86-3.3-6.77-9.28,3.02,1.74,6.61ZM119.32,141.85c-4.22,1.57-10.84.33-9.11,6.59,3.63,2.04,7.01-.03,10.8.11l-1.69-6.7ZM107.57,145.2c-1.76-.14-3.48,0-5.23.23-.83.11-3.35.24-3.17,1.43l8.39,1.68v-3.34Z"/>
  <path d="M137.78,115.84c-2.43,1.1-3.73.74-6.09-.13-4.15-1.54-17.6-12.83-14.79-17.31,5.92-4.22,23.52,13.8,20.87,17.44Z"/>
  <path d="M45.21,90.96c3.77-.61,16.07,1.65,18.69,4.41,1.45,1.53.87,3.37-.85,4.19-3.78,1.8-20.53-.76-21.74-5.15-.72-2.39,2.03-3.14,3.9-3.44Z"/>
  <path d="M68.18,114.3c5.35-2.86,20.96,8.94,17.19,14.2-3.34,4.66-20.97-8.07-17.19-14.2Z"/>
</svg>